<svg width="10" height="6" viewBox="0 0 10 6" fill="none" xmlns="http://www.w3.org/2000/svg">
  <path d="M8.96929 1.54551C9.23234 1.28131 9.23234 0.852968 8.96929 0.588772C8.70621 0.324576 8.27967 0.324576 8.01659 0.588772L4.99988 3.61833L1.98324 0.588847C1.72016 0.324651 1.29364 0.324651 1.03056 0.588847C0.767482 0.853038 0.767482 1.28138 1.03056 1.54558L4.51375 5.04358C4.51692 5.04692 4.52017 5.05021 4.52346 5.0535C4.60975 5.14021 4.71367 5.19846 4.82367 5.22825C4.82634 5.229 4.82904 5.22971 4.83175 5.23038C5.05492 5.28796 5.30167 5.22904 5.47638 5.05358C5.48071 5.04925 5.48496 5.04488 5.48917 5.04046L8.96929 1.54551Z" fill="#9E9EA7" />
</svg>