<svg width="14" height="14" viewBox="0 0 14 14" fill="none" xmlns="http://www.w3.org/2000/svg">
  <path fill-rule="evenodd" clip-rule="evenodd" d="M0.25 3.64062C0.25 3.19189 0.613769 2.82812 1.0625 2.82812H12.4375C12.8862 2.82812 13.25 3.19189 13.25 3.64062C13.25 4.08936 12.8862 4.45312 12.4375 4.45312H1.0625C0.613769 4.45312 0.25 4.08936 0.25 3.64062ZM1.875 6.89062C1.875 6.44191 2.23877 6.07812 2.6875 6.07812H10.8125C11.2612 6.07812 11.625 6.44191 11.625 6.89062C11.625 7.33934 11.2612 7.70312 10.8125 7.70312H2.6875C2.23877 7.70312 1.875 7.33934 1.875 6.89062ZM4.3125 9.32812C3.86377 9.32812 3.5 9.69191 3.5 10.1406C3.5 10.5893 3.86377 10.9531 4.3125 10.9531H9.1875C9.63622 10.9531 10 10.5893 10 10.1406C10 9.69191 9.63622 9.32812 9.1875 9.32812H4.3125Z" fill="#0D0C22" />
</svg>