<svg width="104" height="26" viewBox="0 0 104 26" fill="none" xmlns="http://www.w3.org/2000/svg">
  <path fill-rule="evenodd" clip-rule="evenodd" d="M103.839 20.0569C99.4928 27.4252 92.6101 25.2872 90.5429 23.6132C89.6633 24.2101 88.1205 25.5184 86.0636 25.3674C81.6829 25.0458 80.114 18.7855 80.114 18.7855C80.1454 18.8106 78.8092 19.2467 78.0869 19.2389C78.0776 21.0747 76.4906 25.4603 72.2077 25.4043C67.4017 25.3416 66.4247 18.1814 66.4247 18.1814C66.4247 18.1814 65.9464 18.8456 64.1279 19.5069C64.2195 18.0965 64.1525 25.1896 58.3923 25.2938C53.8385 25.3762 52.6092 18.071 52.6092 18.071C52.6092 18.071 51.8192 18.8917 50.2882 19.1763C50.3855 17.7428 50.2273 25.3178 44.4664 25.2938C40.5733 25.2775 39.2429 20.7936 39.3463 20.1713C39.4784 19.3781 38.0306 25.4054 34.249 25.3114C32.6884 25.2655 31.525 24.1357 30.7949 22.6292C29.8177 23.7476 28.3987 25.3114 26.8069 25.3114C23.9498 25.3114 22.69 22.9216 22.9034 16.0958C22.9215 15.2864 22.8631 14.9679 22.0584 14.8468C21.5753 14.7663 21.0806 14.6136 20.5573 14.5331C20.3895 15.093 18.9666 25.1292 14.0738 25.3197C12.4323 25.3837 11.5348 23.9618 10.7977 22.9063C9.66785 24.4011 8.17633 25.3674 6.05153 25.3674C2.45229 25.3674 0 22.4577 0 18.8684C0 15.2791 2.45229 12.3697 6.05153 12.3697C6.6879 12.3697 6.86656 12.4609 7.44794 12.6306C6.25232 1.7448 9.07588 0.0434975 11.5459 0.0434975C13.9173 0.0434975 17.9685 5.54736 12.2681 19.508C13.5337 23.6721 16.262 23.4366 17.5732 14.8646C17.8399 13.1222 17.1264 10.7708 18.2363 10.4427C20.2649 9.8429 20.4802 11.6424 21.4314 11.9421C22.4371 12.259 23.0242 12.2281 23.9898 12.4297C25.6397 12.7519 26.2836 13.6383 26.0824 15.6122C25.8411 18.1102 25.4189 21.7456 26.7063 22.1886C27.6349 22.5106 29.3301 20.5851 29.6275 19.5315C29.9249 18.478 29.987 18.1173 30.0134 17.3447C30.0537 15.6931 30.1041 14.4824 30.3858 13.2333C30.5063 12.7501 30.6437 12.4301 31.1905 12.4082C31.6405 12.3967 32.4633 12.2612 32.8255 12.5431C33.3083 12.9059 33.248 13.274 33.1926 14.2427C32.6311 28.0547 36.9525 21.1596 38.241 15.6387C37.7823 9.39589 38.0973 0.157815 42.0094 0.00287521C44.0439 -0.077702 44.9433 1.55222 45.0423 2.76879C45.322 6.20487 43.7545 11.8966 41.6931 15.7244C40.5149 23.5346 46.8445 25.079 47.8567 18.8448C46.2006 18.0574 44.4109 14.8704 45.8673 13.3172C46.6845 12.4455 50.0863 13.6978 50.142 16.4289C51.8106 15.9825 52.0334 15.0405 52.0566 15.1966C51.5978 8.95375 52.0232 0.157895 55.9355 0.00295498C57.9698 -0.0776222 58.8692 1.5523 58.9681 2.76888C59.2479 6.20494 57.6805 11.8967 55.6192 15.7245C54.4408 23.5347 60.7707 25.079 61.7826 18.8449C60.5565 18.6083 57.9682 15.2185 59.4616 13.3173C60.2597 12.3014 63.6489 14.4141 64.0285 16.5193C65.6315 16.0656 65.8491 15.1535 65.8721 15.3071C65.4133 9.06438 65.8387 0.268532 69.751 0.113592C71.7853 0.033015 72.6847 1.66294 72.7836 2.87952C73.0635 6.31558 71.4959 12.0075 69.4344 15.8352C68.2563 23.6455 74.5859 25.1896 75.5981 18.9554C73.9132 18.6748 71.5185 15.0956 73.4459 13.2646C74.2159 12.533 77.1581 14.4321 77.8468 16.5986C78.8038 16.5618 79.3995 16.2319 79.5272 16.1985C77.9995 8.86984 79.1367 0.0764648 83.3454 0.00306243C85.6199 -0.0365727 87.8439 1.23282 86.8677 8.2051C85.9361 14.8575 82.5868 17.6492 82.5945 17.6919C82.7895 18.4889 84.508 25.1586 88.8358 21.6395C88.6118 21.1322 88.3875 20.6139 88.2622 19.986C87.5449 16.329 88.9538 12.1982 92.7834 11.5306C94.9775 11.1482 97.0442 12.2163 97.3711 14.6246C97.9087 18.5652 94.3504 21.4191 92.9973 22.0381C92.3913 21.6939 98.491 25.6059 102.111 17.7661C102.321 17.3185 102.574 17.3564 102.902 17.5872C103.133 17.7501 104.452 18.9994 103.839 20.0569ZM8.66967 17.9002C8.48547 17.3495 8.10746 16.1361 7.97381 15.6104C7.23765 14.9703 6.7122 14.8663 5.76729 14.8663C3.66737 14.8663 2.4314 16.8077 2.4314 18.9012C2.4314 20.9948 3.7779 22.9366 5.87781 22.9366C7.69765 22.9366 9.08269 21.6992 9.50525 19.9476C9.20948 19.2648 8.91609 18.6372 8.66967 17.9002ZM11.4945 2.92504C10.0189 2.92504 9.5184 6.44489 9.61555 9.44766C9.70146 12.1025 10.4433 14.4398 10.8281 15.4869C10.9258 15.6182 10.9077 15.5328 10.9949 15.672C13.5568 10.0586 12.4942 2.92504 11.4945 2.92504ZM42.2201 3.0356C40.313 2.81689 40.3252 10.7611 40.5621 12.5431C41.5524 10.9587 43.2731 3.46222 42.2201 3.0356ZM56.1459 3.0356C54.2389 2.81689 54.2512 10.7611 54.488 12.5431C55.4784 10.9587 57.199 3.46222 56.1459 3.0356ZM69.9615 3.14613C68.0544 2.92742 68.0666 10.8717 68.3035 12.6538C69.2938 11.0692 71.0145 3.57273 69.9615 3.14613ZM83.5558 2.57057C80.5845 3.16723 81.2764 13.0739 81.7276 14.8113C85.2277 10.0043 85.2996 2.39 83.5558 2.57057ZM94.6912 14.9505C94.5403 14.319 93.7849 13.9813 93.2635 14.0645C91.7717 14.2683 90.3248 16.1263 90.8848 18.9551C91.0094 19.5851 91.3214 20.165 91.3164 20.1458C94.6553 17.9059 94.939 16.1407 94.6912 14.9505ZM31.7755 10.2215C31.3491 10.2216 30.9322 10.0952 30.5776 9.85841C30.2231 9.62157 29.9467 9.28489 29.7834 8.89097C29.6202 8.49706 29.5775 8.06358 29.6606 7.64537C29.7438 7.22716 29.9491 6.84299 30.2506 6.54146C30.5521 6.23994 30.9362 6.03459 31.3544 5.95139C31.7725 5.86819 32.2061 5.91087 32.6 6.07404C32.994 6.23723 33.3307 6.51356 33.5675 6.86811C33.8044 7.22265 33.9309 7.63948 33.9309 8.06587C33.9309 8.34895 33.8751 8.62925 33.7667 8.89077C33.6585 9.15229 33.4997 9.38993 33.2996 9.5901C33.0994 9.79028 32.8618 9.94906 32.6003 10.0574C32.3388 10.1658 32.0585 10.2215 31.7755 10.2215Z" fill="#EA4C89" />
</svg>