<svg width="16" height="16" viewBox="0 0 16 16" fill="none" xmlns="http://www.w3.org/2000/svg">
<g clip-path="url(#clip0_1_3693)">
<path d="M9.88531 8.00016L12.9426 4.94283C13.4633 4.42216 13.4633 3.57816 12.9426 3.05749C12.4226 2.53683 11.5773 2.53683 11.0573 3.05749L7.99998 6.11483L4.94264 3.05749C4.42264 2.53683 3.57731 2.53683 3.05731 3.05749C2.53664 3.57816 2.53664 4.42216 3.05731 4.94283L6.11464 8.00016L3.05731 11.0575C2.53664 11.5782 2.53664 12.4222 3.05731 12.9428C3.31731 13.2035 3.65864 13.3335 3.99998 13.3335C4.34131 13.3335 4.68264 13.2035 4.94264 12.9428L7.99998 9.88549L11.0573 12.9428C11.3173 13.2035 11.6586 13.3335 12 13.3335C12.3413 13.3335 12.6826 13.2035 12.9426 12.9428C13.4633 12.4222 13.4633 11.5782 12.9426 11.0575L9.88531 8.00016Z" fill="white"/>
</g>
<defs>
<clipPath id="clip0_1_3693">
<rect width="16" height="16" fill="white"/>
</clipPath>
</defs>
</svg>
