<svg width="19" height="18" viewBox="0 0 19 18" fill="none" xmlns="http://www.w3.org/2000/svg">
  <path d="M18.8717 3.42682C18.208 3.71857 17.4993 3.91732 16.753 4.00807C17.5135 3.54982 18.0985 2.82757 18.3752 1.96582C17.662 2.38207 16.8715 2.68507 16.03 2.85382C15.358 2.13457 14.4002 1.68457 13.3368 1.68457C11.299 1.68457 9.64675 3.33682 9.64675 5.37232C9.64675 5.66482 9.6805 5.94607 9.742 6.21532C6.6745 6.07057 3.95575 4.59757 2.13625 2.37082C1.816 2.91232 1.63675 3.54157 1.63675 4.22707C1.63675 5.50957 2.28925 6.63682 3.27775 7.29907C2.6725 7.27957 2.10325 7.11307 1.60675 6.83707V6.88282C1.60675 8.67157 2.8765 10.1633 4.56625 10.5031C4.2565 10.5863 3.9295 10.6313 3.59425 10.6313C3.35875 10.6313 3.133 10.6088 2.90725 10.5668C3.3805 12.0316 4.741 13.0996 6.36025 13.1296C5.10025 14.1188 3.5035 14.7083 1.78375 14.7083C1.49125 14.7083 1.1995 14.6911 0.90625 14.6581C2.548 15.7036 4.48225 16.3148 6.574 16.3148C13.3645 16.3148 17.0732 10.6928 17.0732 5.82532C17.0732 5.66857 17.0732 5.51032 17.062 5.35282C17.7828 4.83607 18.412 4.18282 18.907 3.44182L18.8717 3.42682Z" fill="#3D3D4E" />
</svg>