<svg width="19" height="18" viewBox="0 0 19 18" fill="none" xmlns="http://www.w3.org/2000/svg">
  <path d="M17.8195 0H1.8055C1.25725 0 0.8125 0.44475 0.8125 0.993V17.007C0.8125 17.556 1.25725 18 1.8055 18H10.426V11.0295H8.07925V8.31375H10.426V6.3075C10.426 3.98325 11.8465 2.71875 13.9202 2.71875C14.914 2.71875 15.7683 2.7915 16.0173 2.8245V5.2545H14.5765C13.4515 5.2545 13.2325 5.79525 13.2325 6.58275V8.316H15.9205L15.5718 11.0385H13.2325V18H17.8187C18.3685 18 18.8125 17.556 18.8125 17.007V0.993C18.8125 0.44475 18.3685 0 17.8195 0Z" fill="#3D3D4E" />
</svg>