<svg width="19" height="18" viewBox="0 0 19 18" fill="none" xmlns="http://www.w3.org/2000/svg">
  <path fill-rule="evenodd" clip-rule="evenodd" d="M9.71875 0C7.27413 0 6.96813 0.01125 6.0085 0.054C5.05 0.099 4.3975 0.24975 3.82375 0.4725C3.232 0.702 2.72913 1.01025 2.22963 1.51088C1.729 2.01038 1.41962 2.51213 1.19125 3.105C0.9685 3.67875 0.816625 4.33125 0.77275 5.28975C0.72775 6.24938 0.71875 6.55538 0.71875 9C0.71875 11.4446 0.73 11.7506 0.77275 12.7103C0.81775 13.6688 0.9685 14.3224 1.19125 14.895C1.42075 15.4867 1.729 15.9896 2.22963 16.4891C2.72913 16.9897 3.23088 17.2991 3.82375 17.5275C4.3975 17.7502 5.05 17.9021 6.0085 17.946C6.96813 17.991 7.27413 18 9.71875 18C12.1634 18 12.4694 17.9888 13.429 17.946C14.3875 17.901 15.0411 17.7502 15.6137 17.5275C16.2055 17.298 16.7084 16.9897 17.2079 16.4891C17.7085 15.9896 18.0179 15.4879 18.2463 14.895C18.469 14.3212 18.6209 13.6688 18.6647 12.7103C18.7097 11.7506 18.7188 11.4446 18.7188 9C18.7188 6.55538 18.7075 6.24938 18.6647 5.28975C18.6197 4.33125 18.469 3.67762 18.2463 3.105C18.0168 2.51325 17.7085 2.01038 17.2079 1.51088C16.7084 1.01025 16.2066 0.700875 15.6137 0.4725C15.04 0.24975 14.3875 0.097875 13.429 0.054C12.4694 0.009 12.1634 0 9.71875 0ZM9.71875 1.62C12.1217 1.62 12.4075 1.63125 13.3559 1.674C14.2334 1.7145 14.7093 1.86075 15.0265 1.9845C15.4473 2.14762 15.7465 2.34225 16.0615 2.65725C16.3765 2.97225 16.5711 3.2715 16.7342 3.69225C16.858 4.0095 17.0042 4.48538 17.0448 5.36287C17.0875 6.31238 17.0976 6.597 17.0976 9C17.0976 11.403 17.0864 11.6887 17.0436 12.6371C17.0031 13.5146 16.8569 13.9905 16.7331 14.3078C16.57 14.7285 16.3754 15.0277 16.0604 15.3427C15.7454 15.6577 15.4461 15.8524 15.0254 16.0155C14.7081 16.1392 14.2323 16.2855 13.3548 16.326C12.4053 16.3687 12.1206 16.3789 9.71762 16.3789C7.31463 16.3789 7.02887 16.3676 6.0805 16.3249C5.203 16.2844 4.72712 16.1381 4.40987 16.0144C3.98912 15.8512 3.68988 15.6566 3.37488 15.3416C3.05988 15.0266 2.86525 14.7274 2.70213 14.3066C2.57837 13.9894 2.43212 13.5135 2.39162 12.636C2.35 11.6888 2.33875 11.403 2.33875 9C2.33875 6.597 2.35 6.31125 2.39275 5.36287C2.43325 4.48538 2.5795 4.0095 2.70325 3.69225C2.86637 3.2715 3.061 2.97225 3.376 2.65725C3.691 2.34225 3.99025 2.14762 4.411 1.9845C4.72825 1.86075 5.20413 1.7145 6.08162 1.674C7.03 1.63125 7.31575 1.62 9.71875 1.62ZM9.71875 4.3785C7.165 4.3785 5.09725 6.4485 5.09725 9C5.09725 11.5538 7.16725 13.6215 9.71875 13.6215C12.2725 13.6215 14.3403 11.5515 14.3403 9C14.3403 6.44625 12.2703 4.3785 9.71875 4.3785ZM9.71875 12.0004C8.06163 12.0004 6.71838 10.6571 6.71838 9C6.71838 7.34288 8.06163 5.99963 9.71875 5.99963C11.3759 5.99963 12.7191 7.34288 12.7191 9C12.7191 10.6571 11.3759 12.0004 9.71875 12.0004ZM15.6025 4.19625C15.6025 4.7925 15.1188 5.27625 14.5225 5.27625C13.9263 5.27625 13.4425 4.7925 13.4425 4.19625C13.4425 3.6 13.9263 3.11625 14.5225 3.11625C15.1188 3.11625 15.6025 3.6 15.6025 4.19625Z" fill="#3D3D4E" />
</svg>