<svg width="19" height="18" viewBox="0 0 19 18" fill="none" xmlns="http://www.w3.org/2000/svg">
  <path d="M9.63773 0C4.67198 0 0.646729 4.02525 0.646729 8.99025C0.646729 12.7995 3.01523 16.053 6.36023 17.3617C6.28148 16.65 6.21098 15.5595 6.39098 14.7825C6.55523 14.0797 7.44548 10.3148 7.44548 10.3148C7.44548 10.3148 7.17623 9.77475 7.17623 8.979C7.17623 7.73175 7.90148 6.79575 8.80223 6.79575C9.57023 6.79575 9.94073 7.3725 9.94073 8.06175C9.94073 8.8335 9.45098 9.987 9.19673 11.0557C8.98298 11.9505 9.64673 12.6795 10.528 12.6795C12.124 12.6795 13.354 10.9957 13.354 8.56425C13.354 6.4185 11.8067 4.9125 9.59798 4.9125C7.04048 4.9125 5.54123 6.834 5.54123 8.81175C5.54123 9.5865 5.83673 10.419 6.20798 10.8675C6.28223 10.9575 6.29198 11.0363 6.27173 11.1263C6.20423 11.4075 6.05198 12.0255 6.02123 12.1485C5.98148 12.3173 5.89223 12.3518 5.72048 12.2723C4.59923 11.7548 3.89573 10.1138 3.89573 8.78775C3.89573 5.95575 5.95673 3.34875 9.83573 3.34875C12.9542 3.34875 15.3797 5.574 15.3797 8.541C15.3797 11.6423 13.4245 14.1375 10.705 14.1375C9.79448 14.1375 8.93948 13.6658 8.63648 13.1033L8.07473 15.2393C7.87298 16.023 7.32173 17.0033 6.95123 17.5988C7.79348 17.8575 8.68073 18 9.61373 18C14.569 18 18.6025 13.9762 18.6025 9.00975C18.6025 4.0425 14.569 0.0195 9.61373 0.0195L9.63773 0Z" fill="#3D3D4E" />
</svg>