<svg width="25" height="24" viewBox="0 0 25 24" fill="none" xmlns="http://www.w3.org/2000/svg">
  <g clip-path="url(#clip0_1_3144)">
    <path d="M12.6763 23.625C19.0966 23.625 24.3013 18.4203 24.3013 12C24.3013 5.57969 19.0966 0.375 12.6763 0.375C6.25596 0.375 1.05127 5.57969 1.05127 12C1.05127 18.4203 6.25596 23.625 12.6763 23.625Z" fill="#EA4C89" />
    <path fill-rule="evenodd" clip-rule="evenodd" d="M12.6763 0C6.05154 0 0.67627 5.37527 0.67627 12C0.67627 18.6248 6.05154 24 12.6763 24C19.288 24 24.6763 18.6248 24.6763 12C24.6763 5.37527 19.288 0 12.6763 0ZM20.6025 5.53145C22.0342 7.27549 22.8932 9.50107 22.9192 11.9089C22.5808 11.8439 19.1968 11.154 15.7869 11.5835C15.7088 11.4143 15.6437 11.2321 15.5656 11.0499C15.3574 10.5554 15.1231 10.0477 14.8888 9.56618C18.6632 8.0304 20.3812 5.81779 20.6025 5.53145ZM12.6763 1.77007C15.2793 1.77007 17.6611 2.74621 19.4702 4.34707C19.288 4.60738 17.7391 6.67679 14.0949 8.04338C12.4159 4.95878 10.5548 2.43384 10.2685 2.04338C11.0363 1.86117 11.8433 1.77007 12.6763 1.77007ZM8.31622 2.73319C8.58952 3.09761 10.4116 5.63558 12.1166 8.65508C7.32703 9.9306 3.0971 9.90458 2.64156 9.90458C3.30533 6.72885 5.45284 4.08676 8.31622 2.73319ZM2.4203 12.0131C2.4203 11.9089 2.4203 11.8048 2.4203 11.7007C2.86282 11.7136 7.83462 11.7787 12.9496 10.243C13.249 10.8156 13.5223 11.4013 13.7826 11.9869C13.6524 12.026 13.5092 12.0651 13.3791 12.1041C8.09492 13.8091 5.28365 18.4685 5.04937 18.859C3.42247 17.0499 2.4203 14.6421 2.4203 12.0131ZM12.6763 22.256C10.3075 22.256 8.12096 21.449 6.38993 20.0954C6.57215 19.718 8.65454 15.7094 14.4333 13.692C14.4593 13.679 14.4724 13.679 14.4984 13.666C15.943 17.4013 16.5288 20.5379 16.6849 21.436C15.4485 21.9696 14.0949 22.256 12.6763 22.256ZM18.3899 20.4989C18.2858 19.8742 17.7391 16.8807 16.3986 13.1974C19.6134 12.6898 22.4246 13.5228 22.7761 13.6399C22.3336 16.4902 20.6936 18.9501 18.3899 20.4989Z" fill="#C32361" />
  </g>
  <defs>
    <clipPath id="clip0_1_3144">
      <rect width="24" height="24" fill="white" transform="translate(0.67627)" />
    </clipPath>
  </defs>
</svg>