<svg width="14" height="11" viewBox="0 0 14 11" fill="none" xmlns="http://www.w3.org/2000/svg">
  <path d="M7 3.59895C5.87242 3.59895 4.95833 4.51304 4.95833 5.64062C4.95833 6.76821 5.87242 7.68229 7 7.68229C8.12758 7.68229 9.04167 6.76821 9.04167 5.64062C9.04167 4.51304 8.12758 3.59895 7 3.59895ZM7 0.390625C3.13425 0.390625 0 4.76562 0 5.64062C0 6.51562 3.13425 10.8906 7 10.8906C10.8657 10.8906 14 6.51562 14 5.64062C14 4.76562 10.8657 0.390625 7 0.390625ZM7 8.84896C5.22783 8.84896 3.79167 7.4128 3.79167 5.64062C3.79167 3.86845 5.22783 2.4323 7 2.4323C8.77217 2.4323 10.2083 3.86845 10.2083 5.64062C10.2083 7.4128 8.77217 8.84896 7 8.84896Z" fill="#9E9EA7" />
</svg>