<svg width="19" height="19" viewBox="0 0 19 19" fill="none" xmlns="http://www.w3.org/2000/svg">
  <g clip-path="url(#clip0_1_3680)">
    <path fill-rule="evenodd" clip-rule="evenodd" d="M12.7377 14.306C11.4973 15.2139 9.96749 15.75 8.3125 15.75C4.17037 15.75 0.8125 12.3922 0.8125 8.25C0.8125 4.10787 4.17037 0.75 8.3125 0.75C12.4547 0.75 15.8125 4.10787 15.8125 8.25C15.8125 9.92592 15.2628 11.4734 14.3339 12.7221C14.3423 12.73 14.3505 12.738 14.3587 12.7462L18.0177 16.4052C18.4571 16.8446 18.4571 17.5568 18.0177 17.9963C17.5784 18.4356 16.8661 18.4356 16.4267 17.9963L12.7678 14.3372C12.7575 14.327 12.7475 14.3166 12.7377 14.306ZM13.5625 8.25C13.5625 11.1495 11.212 13.5 8.3125 13.5C5.41301 13.5 3.0625 11.1495 3.0625 8.25C3.0625 5.35051 5.41301 3 8.3125 3C11.212 3 13.5625 5.35051 13.5625 8.25Z" fill="#9E9EA7" />
  </g>
  <defs>
    <clipPath id="clip0_1_3680">
      <rect width="18" height="18" fill="white" transform="translate(0.8125 0.75)" />
    </clipPath>
  </defs>
</svg>