<svg width="16" height="17" viewBox="0 0 16 17" fill="none" xmlns="http://www.w3.org/2000/svg">
  <path fill-rule="evenodd" clip-rule="evenodd" d="M10.6002 12.2529C9.49758 13.0599 8.13777 13.5364 6.66667 13.5364C2.98477 13.5364 0 10.5517 0 6.86979C0 3.18789 2.98477 0.203125 6.66667 0.203125C10.3486 0.203125 13.3333 3.18789 13.3333 6.86979C13.3333 8.35949 12.8447 9.73507 12.019 10.845C12.0265 10.852 12.0338 10.8591 12.0411 10.8664L15.2935 14.1188C15.6841 14.5094 15.6841 15.1425 15.2935 15.5331C14.903 15.9236 14.2699 15.9236 13.8793 15.5331L10.6269 12.2806C10.6178 12.2715 10.6089 12.2623 10.6002 12.2529ZM11.3333 6.86979C11.3333 9.44712 9.244 11.5364 6.66667 11.5364C4.08934 11.5364 2 9.44712 2 6.86979C2 4.29246 4.08934 2.20312 6.66667 2.20312C9.244 2.20312 11.3333 4.29246 11.3333 6.86979Z" fill="#0D0C22" />
</svg>